<svg width="144" height="139" xmlns="http://www.w3.org/2000/svg"><g fill="none" fill-rule="evenodd"><path d="M89.414 59.625c1.936-8.564-.874-16.565-7.909-22.556-5.8-3.847-8.534-10.68-6.211-15.637 2.343-5.014 8.455-5.785 14.573-3.658 3.115 1.16 4.134 4.838 3.788 7.316-.21 1.52-.984 2.805-1.928 3.865 5.06-.168 9.121-1.992 11.712-5.34 2.64-3.408 3.36-8.124 1.804-11.733-1.147-2.646-3.347-4.243-6.202-4.5l.004-.01c-.525.032-49.62 0-49.62 0 1.456 3.829-.688 8.199-2.635 11.935-1.67 3.202-3.39 6.512-3.43 9.923 1.051 5.693 8.707 12.809 13.3 17.078 1.553 1.446 2.782 2.586 3.622 3.525 2.907 3.45 3.13 8.086.599 12.396-1.673 2.854-4.789 5.644-7.755 5.237-3.758-.04-7.302-2.05-9.27-5.265-1.332-2.176-2.981-6.7-.19-13.503-2.979-1.634-6.565-4.828-8.586-8.987-3.771 5.427-4.514 10.075-5.224 14.59-.62 3.944-1.265 8.023-4.014 12.033-3.646 7.159-9.553 10.298-13.876 12.32H69.36c10.118.026 17.425-6.907 20.054-19.029" fill="#FFFFFE"/><path d="M107.678 78.417l-12.145 28.176c-5.138 12.214-27.542 11.146-27.853 11.12 7.232-.518 11.322-2.27 14.42-5.89 1.118-.674 6.108-14.097 14.122-33.874 2.338-6.402 7.551-4.644 7.551-4.644 6.33-.273 3.905 5.112 3.905 5.112zm25.693-16.283c-1.931-2.564-5.255-3.753-10.118-3.57l-26.323-.008.01-.474c-.104 3.323-.505 7.432-.906 9.2C93.023 81.175 84.89 88.62 72.937 88.59l-5.515.398-12.662 29.986.036-.094c-1.875 4.769-7.238 8.376-10.96 9.487H95.33c.259-.02.516-.037.516-.037 11.099-.563 18.324-4.345 20.885-10.923l18.205-44.357.052-.088c.18-.56.394-1.865.394-3.482 0-2.288-.433-5.164-2.01-7.346z" fill="#FFFFFE"/><path d="M136.882 59.574c-2.862-3.798-7.5-5.6-13.796-5.358l-26.054-.037s-.02 1.69-.092 3.903l-.01.474 26.323.008c4.863-.183 8.187 1.006 10.118 3.57 1.577 2.182 2.01 5.058 2.01 7.346 0 1.617-.214 2.922-.394 3.482a4.32 4.32 0 0 0-.052.088l-18.205 44.357c-2.56 6.578-9.786 10.36-20.885 10.923l-.516.036H43.837c3.721-1.11 9.084-4.717 10.96-9.486l-.037.094 12.662-29.986h-3.619a9289.176 9289.176 0 0 1-11.953 28.294c-4.854 12.351-17.74 8.363-18.592 15.44h62.134c1.37-.181 19.987.088 25.372-13.728 0 0 18.092-44.066 18.092-44.079.659-.922 2.28-9.45-1.974-15.34" fill="#3B8DC0"/><path d="M25.842 66.334c2.75-4.01 3.394-8.089 4.014-12.033.71-4.515 1.453-9.163 5.224-14.59 2.021 4.16 5.607 7.353 8.586 8.987-2.791 6.803-1.142 11.327.19 13.503 1.968 3.216 5.512 5.225 9.27 5.265 2.966.407 6.082-2.383 7.755-5.237 2.531-4.31 2.308-8.945-.599-12.396-.84-.939-2.07-2.08-3.622-3.525-4.593-4.269-12.249-11.385-13.3-17.078.04-3.411 1.76-6.72 3.43-9.923 1.947-3.736 4.091-8.106 2.634-11.936 0 0 49.096.033 49.621.002l-.004.01c2.855.256 5.055 1.853 6.202 4.499 1.556 3.61.836 8.325-1.804 11.734-2.591 3.347-6.653 5.171-11.712 5.339.944-1.06 1.718-2.345 1.928-3.865.346-2.478-.673-6.156-3.788-7.316-6.118-2.127-12.23-1.356-14.573 3.658-2.323 4.957.41 11.79 6.211 15.637 7.035 5.991 9.845 13.992 7.91 22.556-2.63 12.122-9.937 19.055-20.055 19.03H11.966c4.323-2.023 10.23-5.162 13.876-12.32zm63.92-41.793c-.262 1.95-3.311 3.723-4.36 4.194l-4.852 2.17c-2.11-2.71-2.635-5.796-1.7-7.794 1.166-2.496 4.557-3.156 9.092-1.8 1.322.485 1.978 2.062 1.82 3.23zm3.492 35.924c2.274-10.056-1.012-19.457-9.253-26.451l-.19-.143-.016-.012a13.57 13.57 0 0 1-2.367-1.947 3.328 3.328 0 0 1-.174-.18c1.92.315 4.63.756 4.63.756 12.105 1.975 18.135-3.19 20.658-6.447 3.546-4.587 4.454-10.762 2.304-15.734-1.718-3.968-5.196-6.574-9.486-6.962H41.421l1.65 1.475 1.265 1.112c.45.6.795 1.167 1.05 1.723a.255.255 0 0 0 .026.047c.66 1.446.702 2.812.254 4.432-.015.061-.03.122-.05.183-.012.047-.027.09-.04.133-.416 1.427-1.173 3.053-2.267 5.024-1.836 3.518-3.91 7.5-3.878 11.964v.16l.026.155c1.175 7.04 9.212 14.51 14.536 19.453 1.422 1.323 2.648 2.464 3.329 3.221 2.521 2.999.963 6.45.174 7.795-1.426 2.43-3.358 3.441-3.867 3.34l-.19-.038h-.196a7.14 7.14 0 0 1-6.042-3.39c-1.762-2.882-1.47-6.97.819-11.52l1.022-2.038-2.153-.724c-2.54-.859-8.036-4.975-9.241-10.614l-.833-3.898-2.581 3.026c-6.398 7.504-7.385 13.78-8.26 19.32-.607 3.859-1.131 7.195-3.424 10.494l-.08.117-.062.125c-3.314 6.607-8.972 9.221-13.103 11.119-2.976 1.371-5.327 2.452-5.71 4.767l-.378 2.29h66.137c11.95.039 20.885-8.237 23.9-22.133zM99.621 79.478c1.699-4.045 3.188-1.94 4.358-2.283-.007 0-11.613 26.966-11.613 26.966-.833 2.632-3.29 4.734-4.906 5.615 3.64-9.455 10.923-26.504 12.161-30.298zM82.1 111.823c-3.098 3.62-7.188 5.372-14.42 5.89.31.026 22.715 1.094 27.853-11.12l12.145-28.176s2.426-5.385-3.905-5.112c0 0-5.213-1.758-7.551 4.644-8.014 19.777-13.004 33.2-14.122 33.874z" fill="#3B8DC0"/><path d="M138.856 74.915c0 .013-18.092 44.079-18.092 44.079-5.385 13.816-24.002 13.547-25.372 13.728H33.258c.852-7.077 13.738-3.089 18.592-15.44 0 0 6.737-15.869 11.953-28.294h3.619l5.515-.398c11.954.03 20.086-7.415 23.097-21.308.4-1.768.802-5.877.906-9.2.072-2.214.092-3.903.092-3.903l26.054.037c6.295-.243 10.934 1.56 13.796 5.358 4.254 5.89 2.633 14.42 1.974 15.341zM5.536 82.597H3.218l.379-2.289c.382-2.315 2.733-3.396 5.709-4.767 4.13-1.898 9.79-4.512 13.103-11.119l.062-.125.08-.117c2.293-3.3 2.817-6.635 3.424-10.495.875-5.54 1.862-11.815 8.26-19.32l2.58-3.025.834 3.898c1.205 5.64 6.701 9.755 9.24 10.614l2.154.724-1.022 2.039c-2.289 4.548-2.58 8.637-.82 11.518a7.14 7.14 0 0 0 6.043 3.391h.197l.189.037c.51.102 2.44-.909 3.867-3.339.789-1.344 2.347-4.796-.174-7.795-.68-.757-1.907-1.898-3.33-3.221-5.323-4.943-13.36-12.414-14.535-19.453l-.026-.156v-.159c-.031-4.463 2.042-8.446 3.878-11.964 1.05-2.012 1.83-3.615 2.267-5.024.013-.042.028-.086.04-.133.02-.06.035-.122.05-.183.448-1.62.407-2.986-.254-4.432a.255.255 0 0 1-.025-.047 9.465 9.465 0 0 0-1.05-1.723L43.07 4.82l-1.68-1.475h57.97c4.29.388 7.768 2.994 9.486 6.962 2.15 4.972 1.242 11.147-2.304 15.734-2.523 3.257-8.553 8.422-20.657 6.447 0 0-2.71-.441-4.63-.756.051.06.115.12.173.18a13.57 13.57 0 0 0 2.367 1.947l.016.012.093.06.097.083c8.24 6.994 11.527 16.395 9.253 26.451-3.015 13.896-11.95 22.172-23.9 22.132H5.537zm136.177-14.572c-.037-3.572-.707-7.123-3.161-10.522-3.436-4.561-8.482-6.121-15.68-5.843l-25.89-.019s-.18-6.768-4.177-11.487c9.733.522 14.814-3.925 17.068-6.838 3.33-4.302 4.333-9.998 2.671-14.788.44-3.18.053-6.415-1.198-9.313C109.218 4.296 104.95 1.2 99.638.72L33.284.682 42.19 8.3c1.32 1.936 1.58 2.382-1.302 7.903-1.584 3.043-3.493 6.718-4.036 10.88l-4.69 5.498c-6.904 8.094-8.003 15.072-8.886 20.674-.577 3.671-1.035 6.572-2.966 9.359l-.193.274-.149.302c-2.884 5.748-7.83 8.026-11.8 9.86C4.9 74.554 1.524 76.108.903 79.86L0 85.345h8.2c-.67.617-.836 1.103-.986 2.002l-.217 1.641h53.35l-11.5 27.396c-2.286 5.797-6.488 7.278-10.553 8.693-3.587 1.261-7.656 2.677-8.228 7.452l-.351 2.945h2.95s5.759.018 5.783.011c-.968.75-1.618 1.717-1.786 3.133H98.79c1.375-.18 19.99.095 25.38-13.728 0 0 18.084-44.064 18.084-44.076.571-.8 1.852-7.246-.541-12.79z" fill="#022145"/><path d="M85.402 28.735c1.049-.471 4.098-2.244 4.36-4.194.158-1.168-.498-2.735-1.82-3.23-4.535-1.356-7.926-.696-9.092 1.8-.935 1.998-.41 5.083 1.7 7.794l4.852-2.17M99.621 79.478c-1.238 3.794-8.521 20.843-12.16 30.298 1.616-.88 4.072-2.983 4.905-5.615 0 0 11.606-26.966 11.613-26.966-1.17.343-2.66-1.762-4.358 2.283M116.698 135.75h1.213V139h.763v-3.25h1.216v-.563h-3.192v.562M122.849 137.914l-1.072-2.727h-1.049V139h.69v-3.146l1.228 3.146h.394l1.17-3.146V139h.689v-3.813h-1.052l-.998 2.727" fill="#022145"/></g></svg>